<svg width="575" height="383" viewBox="0 0 575 383" fill="none" xmlns="http://www.w3.org/2000/svg">
<path d="M169.773 77.9531H176.851V44.1328H169.773V77.9531ZM181.746 77.9531H188.59V63.5156C188.59 60.2344 190.535 57.9844 193.606 57.9844C196.676 57.9844 198.223 59.8594 198.223 63.1406V77.9531H205.067V61.7344C205.067 55.8516 201.926 52.3125 196.395 52.3125C192.598 52.3125 190.02 54.0703 188.731 56.9531H188.59V52.8281H181.746V77.9531ZM219.243 78.4688C220.673 78.4688 221.774 78.3281 222.548 78.2109V73.1953C222.126 73.2422 221.68 73.3125 221.071 73.3125C219.008 73.3125 217.954 72.5156 217.954 70.1719V57.9844H222.548V52.8281H217.954V46.6875H211.04V52.8281H207.548V57.9844H211.04V70.9219C211.04 76.3125 213.665 78.4688 219.243 78.4688ZM226.177 77.9531H233.021V63.8906C233.021 60.2344 234.989 58.2188 238.364 58.2188C239.349 58.2188 240.286 58.3594 240.849 58.5938V52.5703C240.333 52.4297 239.63 52.3125 238.88 52.3125C235.95 52.3125 233.911 54.1172 233.161 57.2109H233.021V52.8281H226.177V77.9531ZM254.205 78.4688C261.799 78.4688 266.65 73.5938 266.65 65.3906V65.3438C266.65 57.2109 261.705 52.3125 254.181 52.3125C246.681 52.3125 241.76 57.2578 241.76 65.3438V65.3906C241.76 73.5703 246.564 78.4688 254.205 78.4688ZM254.228 73.1016C250.853 73.1016 248.72 70.3125 248.72 65.3906V65.3438C248.72 60.4922 250.877 57.6797 254.181 57.6797C257.51 57.6797 259.689 60.4922 259.689 65.3438V65.3906C259.689 70.2891 257.556 73.1016 254.228 73.1016ZM279.35 78.4688C282.983 78.4688 285.748 76.6406 287.084 73.6641H287.225V77.9531H294.069V44.1328H287.225V57.1875H287.084C285.725 54.1406 282.912 52.3125 279.35 52.3125C273.022 52.3125 269.131 57.1875 269.131 65.3672V65.3906C269.131 73.5469 273.022 78.4688 279.35 78.4688ZM281.647 72.7969C278.225 72.7969 276.092 69.9609 276.092 65.3906V65.3672C276.092 60.7734 278.248 57.9844 281.647 57.9844C284.951 57.9844 287.248 60.8438 287.248 65.3672V65.3906C287.248 69.9375 284.975 72.7969 281.647 72.7969ZM307.05 78.4688C310.847 78.4688 313.425 76.6875 314.714 73.8047H314.854V77.9531H321.698V52.8281H314.854V67.2656C314.854 70.5469 312.909 72.7969 309.839 72.7969C306.768 72.7969 305.222 70.8984 305.222 67.6172V52.8281H298.378V69.0469C298.378 74.9297 301.518 78.4688 307.05 78.4688ZM337.492 78.4688C344.195 78.4688 348.531 74.2969 348.859 68.8125V68.6719H342.484L342.46 68.8828C341.992 71.4141 340.281 73.1016 337.538 73.1016C334.163 73.1016 332.054 70.3125 332.054 65.3906V65.3672C332.054 60.5625 334.163 57.6797 337.515 57.6797C340.351 57.6797 342.015 59.5078 342.437 61.8984L342.484 62.1094H348.835V61.9453C348.578 56.5078 344.242 52.3125 337.421 52.3125C329.898 52.3125 325.093 57.3047 325.093 65.3438V65.3672C325.093 73.4766 329.828 78.4688 337.492 78.4688ZM355.582 49.5938C357.645 49.5938 359.238 47.9766 359.238 46.0312C359.238 44.0859 357.645 42.4688 355.582 42.4688C353.52 42.4688 351.926 44.0859 351.926 46.0312C351.926 47.9766 353.52 49.5938 355.582 49.5938ZM352.16 77.9531H359.004V52.8281H352.16V77.9531ZM363.454 77.9531H370.297V63.5156C370.297 60.2344 372.243 57.9844 375.313 57.9844C378.383 57.9844 379.93 59.8594 379.93 63.1406V77.9531H386.774V61.7344C386.774 55.8516 383.633 52.3125 378.102 52.3125C374.305 52.3125 371.727 54.0703 370.438 56.9531H370.297V52.8281H363.454V77.9531ZM402.708 86.6719C410.255 86.6719 414.966 82.8516 414.966 77.25V52.8281H408.122V57.1172H407.981C406.622 54.1875 403.88 52.3125 400.341 52.3125C393.989 52.3125 390.052 57.0703 390.052 65.0859V65.1094C390.052 72.9141 393.942 77.6016 400.224 77.6016C403.856 77.6016 406.669 75.9375 407.981 73.3125H408.122V77.1562C408.122 79.9688 406.247 81.7969 402.708 81.7969C399.849 81.7969 398.021 80.7188 397.481 79.4766L397.411 79.3125H390.755L390.778 79.5234C391.435 83.5547 395.794 86.6719 402.708 86.6719ZM402.591 72.5859C399.169 72.5859 397.013 69.7969 397.013 65.2734V65.25C397.013 60.75 399.192 57.9844 402.591 57.9844C405.919 57.9844 408.146 60.7734 408.146 65.25V65.2734C408.146 69.7734 405.942 72.5859 402.591 72.5859ZM199.957 130.469C201.387 130.469 202.488 130.328 203.262 130.211V125.195C202.84 125.242 202.395 125.312 201.785 125.312C199.723 125.312 198.668 124.516 198.668 122.172V109.984H203.262V104.828H198.668V98.6875H191.754V104.828H188.262V109.984H191.754V122.922C191.754 128.312 194.379 130.469 199.957 130.469ZM207.055 129.953H213.899V115.562C213.899 112.281 215.844 109.984 218.868 109.984C221.985 109.984 223.719 112.07 223.719 115.586V129.953H230.563V114.18C230.563 108.109 227.188 104.312 221.751 104.312C217.977 104.312 215.329 106.047 214.04 109.164H213.899V96.1328H207.055V129.953ZM246.263 130.469C253.435 130.469 256.904 126.227 257.677 122.523L257.747 122.266H251.466L251.419 122.406C250.927 123.812 249.216 125.359 246.404 125.359C242.911 125.359 240.732 123.016 240.661 119.008H257.958V116.898C257.958 109.305 253.341 104.312 245.982 104.312C238.622 104.312 233.911 109.422 233.911 117.414V117.438C233.911 125.477 238.575 130.469 246.263 130.469ZM246.099 109.422C248.935 109.422 250.974 111.227 251.396 114.695H240.732C241.177 111.297 243.286 109.422 246.099 109.422ZM269.155 129.953H276.584L279.139 121.75H291.092L293.647 129.953H301.076L289.287 96.1328H280.967L269.155 129.953ZM285.045 102.695H285.186L289.451 116.453H280.78L285.045 102.695ZM303.815 138.156H310.659V125.664H310.8C312.159 128.641 314.995 130.469 318.581 130.469C324.862 130.469 328.753 125.547 328.753 117.391V117.367C328.753 109.188 324.862 104.312 318.487 104.312C314.925 104.312 312.182 106.164 310.823 109.211H310.659V104.828H303.815V138.156ZM316.237 124.797C312.909 124.797 310.636 121.938 310.636 117.414V117.391C310.636 112.844 312.909 109.984 316.237 109.984C319.636 109.984 321.792 112.773 321.792 117.367V117.391C321.792 121.961 319.636 124.797 316.237 124.797ZM332.171 138.156H339.015V125.664H339.156C340.515 128.641 343.351 130.469 346.937 130.469C353.218 130.469 357.109 125.547 357.109 117.391V117.367C357.109 109.188 353.218 104.312 346.843 104.312C343.281 104.312 340.538 106.164 339.179 109.211H339.015V104.828H332.171V138.156ZM344.593 124.797C341.265 124.797 338.992 121.938 338.992 117.414V117.391C338.992 112.844 341.265 109.984 344.593 109.984C347.992 109.984 350.148 112.773 350.148 117.367V117.391C350.148 121.961 347.992 124.797 344.593 124.797ZM360.691 129.953H367.535V96.1328H360.691V129.953ZM383.446 130.469C390.618 130.469 394.086 126.227 394.86 122.523L394.93 122.266H388.649L388.602 122.406C388.11 123.812 386.399 125.359 383.586 125.359C380.094 125.359 377.915 123.016 377.844 119.008H395.141V116.898C395.141 109.305 390.524 104.312 383.165 104.312C375.805 104.312 371.094 109.422 371.094 117.414V117.438C371.094 125.477 375.758 130.469 383.446 130.469ZM383.282 109.422C386.118 109.422 388.157 111.227 388.579 114.695H377.915C378.36 111.297 380.469 109.422 383.282 109.422Z" fill="#1D1D1F"/>
<path d="M141.358 207.953H148.436V195.695H154.108L160.413 207.953H168.428L161.303 194.641C165.053 193.164 167.421 189.461 167.421 185.008V184.961C167.421 178.164 162.921 174.133 155.327 174.133H141.358V207.953ZM148.436 190.328V179.664H154.46C157.952 179.664 160.178 181.727 160.178 184.961V185.008C160.178 188.336 158.069 190.328 154.553 190.328H148.436ZM182.581 208.469C189.753 208.469 193.222 204.227 193.995 200.523L194.066 200.266H187.784L187.737 200.406C187.245 201.812 185.534 203.359 182.722 203.359C179.23 203.359 177.05 201.016 176.98 197.008H194.277V194.898C194.277 187.305 189.659 182.312 182.3 182.312C174.941 182.312 170.23 187.422 170.23 195.414V195.438C170.23 203.477 174.894 208.469 182.581 208.469ZM182.417 187.422C185.253 187.422 187.292 189.227 187.714 192.695H177.05C177.495 189.297 179.605 187.422 182.417 187.422ZM208.008 208.469C214.476 208.469 219 205.234 219 200.312V200.289C219 196.586 216.843 194.523 211.593 193.422L207.328 192.508C204.797 191.969 203.929 191.125 203.929 189.836V189.812C203.929 188.195 205.406 187.141 207.773 187.141C210.304 187.141 211.781 188.5 212.015 190.305L212.039 190.492H218.343V190.258C218.179 185.852 214.453 182.312 207.773 182.312C201.375 182.312 197.25 185.406 197.25 190.188V190.211C197.25 193.961 199.711 196.398 204.586 197.43L208.851 198.32C211.312 198.859 212.156 199.633 212.156 200.969V200.992C212.156 202.609 210.586 203.617 208.008 203.617C205.265 203.617 203.789 202.469 203.343 200.5L203.297 200.289H196.617L196.64 200.5C197.179 205.258 201.047 208.469 208.008 208.469ZM233.668 208.469C240.84 208.469 244.309 204.227 245.082 200.523L245.153 200.266H238.871L238.824 200.406C238.332 201.812 236.621 203.359 233.809 203.359C230.317 203.359 228.137 201.016 228.067 197.008H245.364V194.898C245.364 187.305 240.746 182.312 233.387 182.312C226.028 182.312 221.317 187.422 221.317 195.414V195.438C221.317 203.477 225.981 208.469 233.668 208.469ZM233.504 187.422C236.34 187.422 238.379 189.227 238.801 192.695H228.137C228.582 189.297 230.692 187.422 233.504 187.422ZM256.235 208.352C259.54 208.352 262.212 206.781 263.641 204.203H263.782V207.953H270.626V190.727C270.626 185.664 266.43 182.312 259.938 182.312C253.305 182.312 249.321 185.641 248.946 190.281L248.923 190.562H255.18L255.227 190.352C255.555 188.734 257.102 187.539 259.657 187.539C262.329 187.539 263.782 188.922 263.782 191.148V192.695L257.571 193.07C251.337 193.469 247.798 196.141 247.798 200.711V200.758C247.798 205.188 251.196 208.352 256.235 208.352ZM254.571 200.406V200.359C254.571 198.578 255.954 197.453 258.602 197.289L263.782 196.961V198.766C263.782 201.391 261.532 203.359 258.462 203.359C256.095 203.359 254.571 202.258 254.571 200.406ZM274.911 207.953H281.755V193.891C281.755 190.234 283.724 188.219 287.099 188.219C288.083 188.219 289.021 188.359 289.583 188.594V182.57C289.068 182.43 288.365 182.312 287.615 182.312C284.685 182.312 282.646 184.117 281.896 187.211H281.755V182.828H274.911V207.953ZM302.892 208.469C309.596 208.469 313.932 204.297 314.26 198.812V198.672H307.885L307.861 198.883C307.392 201.414 305.682 203.102 302.939 203.102C299.564 203.102 297.455 200.312 297.455 195.391V195.367C297.455 190.562 299.564 187.68 302.916 187.68C305.752 187.68 307.416 189.508 307.838 191.898L307.885 192.109H314.236V191.945C313.978 186.508 309.642 182.312 302.822 182.312C295.299 182.312 290.494 187.305 290.494 195.344V195.367C290.494 203.477 295.228 208.469 302.892 208.469ZM317.584 207.953H324.428V193.562C324.428 190.281 326.373 187.984 329.397 187.984C332.514 187.984 334.248 190.07 334.248 193.586V207.953H341.092V192.18C341.092 186.109 337.717 182.312 332.28 182.312C328.506 182.312 325.858 184.047 324.569 187.164H324.428V174.133H317.584V207.953ZM362.203 208.352C365.507 208.352 368.179 206.781 369.609 204.203H369.75V207.953H376.593V190.727C376.593 185.664 372.398 182.312 365.906 182.312C359.273 182.312 355.289 185.641 354.914 190.281L354.89 190.562H361.148L361.195 190.352C361.523 188.734 363.07 187.539 365.625 187.539C368.296 187.539 369.75 188.922 369.75 191.148V192.695L363.539 193.07C357.304 193.469 353.765 196.141 353.765 200.711V200.758C353.765 205.188 357.164 208.352 362.203 208.352ZM360.539 200.406V200.359C360.539 198.578 361.921 197.453 364.57 197.289L369.75 196.961V198.766C369.75 201.391 367.5 203.359 364.429 203.359C362.062 203.359 360.539 202.258 360.539 200.406ZM380.879 216.156H387.723V203.664H387.863C389.223 206.641 392.059 208.469 395.645 208.469C401.926 208.469 405.816 203.547 405.816 195.391V195.367C405.816 187.188 401.926 182.312 395.551 182.312C391.988 182.312 389.246 184.164 387.887 187.211H387.723V182.828H380.879V216.156ZM393.301 202.797C389.973 202.797 387.699 199.938 387.699 195.414V195.391C387.699 190.844 389.973 187.984 393.301 187.984C396.699 187.984 398.856 190.773 398.856 195.367V195.391C398.856 199.961 396.699 202.797 393.301 202.797ZM409.235 216.156H416.079V203.664H416.219C417.579 206.641 420.415 208.469 424.001 208.469C430.282 208.469 434.172 203.547 434.172 195.391V195.367C434.172 187.188 430.282 182.312 423.907 182.312C420.344 182.312 417.602 184.164 416.243 187.211H416.079V182.828H409.235V216.156ZM421.657 202.797C418.329 202.797 416.055 199.938 416.055 195.414V195.391C416.055 190.844 418.329 187.984 421.657 187.984C425.055 187.984 427.212 190.773 427.212 195.367V195.391C427.212 199.961 425.055 202.797 421.657 202.797ZM440.45 208.352C442.56 208.352 444.247 206.664 444.247 204.555C444.247 202.422 442.56 200.758 440.45 200.758C438.318 200.758 436.654 202.422 436.654 204.555C436.654 206.664 438.318 208.352 440.45 208.352Z" fill="#1D1D1F"/>
<path d="M133.561 253.953H135.406V240.818H140.072V239.157H128.895V240.818H133.561V253.953ZM142.067 253.953H143.851V247.729C143.851 245.914 144.948 244.663 146.599 244.663C148.26 244.663 149.244 245.801 149.244 247.729V253.953H151.028V247.421C151.028 244.837 149.48 243.084 147.214 243.084C145.625 243.084 144.466 243.792 143.892 244.991H143.851V239.157H142.067V253.953ZM157.914 254.158C160.242 254.158 161.985 252.764 162.334 251L162.354 250.897H160.601L160.57 250.99C160.262 251.902 159.309 252.579 157.955 252.579C156.058 252.579 154.848 251.297 154.807 249.103H162.487V248.447C162.487 245.248 160.714 243.084 157.801 243.084C154.889 243.084 153.003 245.35 153.003 248.652V248.662C153.003 252.015 154.848 254.158 157.914 254.158ZM157.791 244.663C159.35 244.663 160.498 245.637 160.673 247.708H154.838C155.033 245.719 156.243 244.663 157.791 244.663ZM169.635 253.953H171.419V244.766H173.593V243.289H171.399V241.987C171.399 240.931 171.891 240.428 172.875 240.428C173.152 240.428 173.429 240.438 173.644 240.469V239.023C173.378 238.982 172.957 238.952 172.557 238.952C170.589 238.952 169.635 239.926 169.635 241.977V243.289H168.148V244.766H169.635V253.953ZM179.31 254.158C180.93 254.158 182.017 253.43 182.591 252.436H182.632V253.953H184.416V243.289H182.632V249.564C182.632 251.379 181.535 252.579 179.853 252.579C178.213 252.579 177.403 251.625 177.403 249.893V243.289H175.618V250.21C175.618 252.641 176.972 254.158 179.31 254.158ZM190.441 254.158C190.789 254.158 191.169 254.117 191.394 254.086V252.641C191.241 252.651 191.036 252.682 190.82 252.682C189.867 252.682 189.364 252.364 189.364 251.226V244.766H191.394V243.289H189.364V240.408H187.518V243.289H185.96V244.766H187.518V251.236C187.518 253.276 188.482 254.158 190.441 254.158ZM197.183 254.158C198.803 254.158 199.89 253.43 200.464 252.436H200.505V253.953H202.289V243.289H200.505V249.564C200.505 251.379 199.408 252.579 197.726 252.579C196.086 252.579 195.276 251.625 195.276 249.893V243.289H193.492V250.21C193.492 252.641 194.845 254.158 197.183 254.158ZM204.848 253.953H206.632V247.37C206.632 245.75 207.535 244.786 208.919 244.786C209.35 244.786 209.729 244.837 209.873 244.889V243.156C209.729 243.135 209.462 243.084 209.155 243.084C207.955 243.084 207.032 243.863 206.673 245.094H206.632V243.289H204.848V253.953ZM215.436 254.158C217.763 254.158 219.506 252.764 219.855 251L219.875 250.897H218.122L218.091 250.99C217.784 251.902 216.83 252.579 215.477 252.579C213.58 252.579 212.37 251.297 212.329 249.103H220.009V248.447C220.009 245.248 218.235 243.084 215.323 243.084C212.411 243.084 210.524 245.35 210.524 248.652V248.662C210.524 252.015 212.37 254.158 215.436 254.158ZM215.313 244.663C216.871 244.663 218.02 245.637 218.194 247.708H212.359C212.554 245.719 213.764 244.663 215.313 244.663ZM231.002 254.158C233.944 254.158 235.934 252.025 235.934 248.621V248.601C235.934 245.196 233.934 243.084 230.991 243.084C228.048 243.084 226.059 245.207 226.059 248.601V248.621C226.059 252.015 228.038 254.158 231.002 254.158ZM231.012 252.579C229.125 252.579 227.884 251.133 227.884 248.621V248.601C227.884 246.109 229.135 244.663 230.991 244.663C232.878 244.663 234.108 246.099 234.108 248.601V248.621C234.108 251.123 232.888 252.579 231.012 252.579ZM238.544 253.953H240.328V244.766H242.502V243.289H240.307V241.987C240.307 240.931 240.799 240.428 241.784 240.428C242.061 240.428 242.338 240.438 242.553 240.469V239.023C242.286 238.982 241.866 238.952 241.466 238.952C239.497 238.952 238.544 239.926 238.544 241.977V243.289H237.057V244.766H238.544V253.953ZM249.208 253.953H250.992V247.729C250.992 245.914 252.09 244.663 253.74 244.663C255.402 244.663 256.386 245.801 256.386 247.729V253.953H258.17V247.421C258.17 244.837 256.622 243.084 254.356 243.084C252.766 243.084 251.608 243.792 251.033 244.991H250.992V239.157H249.208V253.953ZM265.056 254.158C267.384 254.158 269.127 252.764 269.475 251L269.496 250.897H267.742L267.712 250.99C267.404 251.902 266.45 252.579 265.097 252.579C263.2 252.579 261.99 251.297 261.949 249.103H269.629V248.447C269.629 245.248 267.855 243.084 264.943 243.084C262.031 243.084 260.144 245.35 260.144 248.652V248.662C260.144 252.015 261.99 254.158 265.056 254.158ZM264.933 244.663C266.491 244.663 267.64 245.637 267.814 247.708H261.98C262.175 245.719 263.385 244.663 264.933 244.663ZM274.782 254.158C276.207 254.158 277.489 253.389 278.115 252.22H278.156V253.953H279.94V246.581C279.94 244.448 278.361 243.084 275.838 243.084C273.326 243.084 271.798 244.499 271.644 246.252L271.634 246.365H273.357L273.377 246.273C273.582 245.319 274.444 244.663 275.818 244.663C277.305 244.663 278.156 245.453 278.156 246.755V247.647L275.1 247.821C272.649 247.965 271.234 249.103 271.234 250.918V250.938C271.234 252.876 272.659 254.158 274.782 254.158ZM273.059 250.938V250.918C273.059 249.923 273.88 249.288 275.305 249.206L278.156 249.031V249.903C278.156 251.451 276.864 252.61 275.182 252.61C273.9 252.61 273.059 251.964 273.059 250.938ZM282.529 253.953H284.313V239.157H282.529V253.953ZM290.42 254.158C290.768 254.158 291.148 254.117 291.373 254.086V252.641C291.22 252.651 291.015 252.682 290.799 252.682C289.846 252.682 289.343 252.364 289.343 251.226V244.766H291.373V243.289H289.343V240.408H287.497V243.289H285.939V244.766H287.497V251.236C287.497 253.276 288.461 254.158 290.42 254.158ZM293.614 253.953H295.398V247.729C295.398 245.914 296.496 244.663 298.146 244.663C299.808 244.663 300.792 245.801 300.792 247.729V253.953H302.576V247.421C302.576 244.837 301.028 243.084 298.762 243.084C297.172 243.084 296.014 243.792 295.439 244.991H295.398V239.157H293.614V253.953ZM309.611 253.953H311.395V247.37C311.395 245.75 312.297 244.786 313.682 244.786C314.112 244.786 314.492 244.837 314.635 244.889V243.156C314.492 243.135 314.225 243.084 313.918 243.084C312.718 243.084 311.795 243.863 311.436 245.094H311.395V243.289H309.611V253.953ZM320.198 254.158C322.526 254.158 324.269 252.764 324.618 251L324.638 250.897H322.885L322.854 250.99C322.546 251.902 321.593 252.579 320.239 252.579C318.342 252.579 317.132 251.297 317.091 249.103H324.772V248.447C324.772 245.248 322.998 243.084 320.086 243.084C317.173 243.084 315.287 245.35 315.287 248.652V248.662C315.287 252.015 317.132 254.158 320.198 254.158ZM320.075 244.663C321.634 244.663 322.782 245.637 322.957 247.708H317.122C317.317 245.719 318.527 244.663 320.075 244.663ZM330.591 254.158C332.97 254.158 334.734 252.846 334.734 250.979V250.969C334.734 249.452 333.954 248.601 331.801 248.078L330.109 247.667C328.93 247.38 328.448 246.878 328.448 246.15V246.14C328.448 245.196 329.248 244.571 330.54 244.571C331.862 244.571 332.652 245.258 332.796 246.293L332.806 246.365H334.508L334.498 246.232C334.364 244.448 332.878 243.084 330.54 243.084C328.233 243.084 326.623 244.386 326.623 246.222V246.232C326.623 247.77 327.597 248.703 329.607 249.185L331.298 249.595C332.508 249.893 332.908 250.323 332.908 251.092V251.103C332.908 252.066 332.047 252.671 330.601 252.671C329.145 252.671 328.356 252.046 328.14 250.979L328.12 250.877H326.336L326.346 250.969C326.561 252.876 328.079 254.158 330.591 254.158ZM341.209 254.158C343.537 254.158 345.28 252.764 345.629 251L345.649 250.897H343.896L343.865 250.99C343.557 251.902 342.604 252.579 341.25 252.579C339.353 252.579 338.143 251.297 338.102 249.103H345.782V248.447C345.782 245.248 344.008 243.084 341.096 243.084C338.184 243.084 336.298 245.35 336.298 248.652V248.662C336.298 252.015 338.143 254.158 341.209 254.158ZM341.086 244.663C342.645 244.663 343.793 245.637 343.967 247.708H338.133C338.328 245.719 339.538 244.663 341.086 244.663ZM350.935 254.158C352.361 254.158 353.642 253.389 354.268 252.22H354.309V253.953H356.093V246.581C356.093 244.448 354.514 243.084 351.991 243.084C349.479 243.084 347.951 244.499 347.798 246.252L347.787 246.365H349.51L349.53 246.273C349.736 245.319 350.597 244.663 351.971 244.663C353.458 244.663 354.309 245.453 354.309 246.755V247.647L351.253 247.821C348.802 247.965 347.387 249.103 347.387 250.918V250.938C347.387 252.876 348.813 254.158 350.935 254.158ZM349.213 250.938V250.918C349.213 249.923 350.033 249.288 351.458 249.206L354.309 249.031V249.903C354.309 251.451 353.017 252.61 351.335 252.61C350.053 252.61 349.213 251.964 349.213 250.938ZM358.59 253.953H360.374V247.37C360.374 245.75 361.277 244.786 362.661 244.786C363.092 244.786 363.471 244.837 363.615 244.889V243.156C363.471 243.135 363.204 243.084 362.897 243.084C361.697 243.084 360.774 243.863 360.415 245.094H360.374V243.289H358.59V253.953ZM369.208 254.158C371.618 254.158 373.371 252.589 373.658 250.559L373.669 250.487H371.915L371.895 250.569C371.597 251.759 370.664 252.579 369.208 252.579C367.363 252.579 366.091 251.113 366.091 248.631V248.621C366.091 246.201 367.332 244.663 369.188 244.663C370.757 244.663 371.618 245.606 371.885 246.673L371.905 246.755H373.648L373.638 246.673C373.412 244.848 371.844 243.084 369.188 243.084C366.224 243.084 364.266 245.237 364.266 248.601V248.611C364.266 252.005 366.183 254.158 369.208 254.158ZM375.633 253.953H377.417V247.729C377.417 245.914 378.514 244.663 380.165 244.663C381.826 244.663 382.81 245.801 382.81 247.729V253.953H384.595V247.421C384.595 244.837 383.046 243.084 380.78 243.084C379.191 243.084 378.032 243.792 377.458 244.991H377.417V239.157H375.633V253.953ZM392.634 241.484C393.26 241.484 393.752 240.982 393.752 240.367C393.752 239.741 393.26 239.249 392.634 239.249C392.019 239.249 391.517 239.741 391.517 240.367C391.517 240.982 392.019 241.484 392.634 241.484ZM391.742 253.953H393.526V243.289H391.742V253.953ZM399.971 254.158C402.35 254.158 404.114 252.846 404.114 250.979V250.969C404.114 249.452 403.334 248.601 401.181 248.078L399.489 247.667C398.31 247.38 397.828 246.878 397.828 246.15V246.14C397.828 245.196 398.628 244.571 399.92 244.571C401.243 244.571 402.032 245.258 402.176 246.293L402.186 246.365H403.888L403.878 246.232C403.745 244.448 402.258 243.084 399.92 243.084C397.613 243.084 396.003 244.386 396.003 246.222V246.232C396.003 247.77 396.977 248.703 398.987 249.185L400.679 249.595C401.889 249.893 402.289 250.323 402.289 251.092V251.103C402.289 252.066 401.427 252.671 399.981 252.671C398.525 252.671 397.736 252.046 397.521 250.979L397.5 250.877H395.716L395.726 250.969C395.941 252.876 397.459 254.158 399.971 254.158ZM411.764 257.542C413.691 257.542 414.625 256.66 415.383 254.62L419.546 243.289H417.67L414.717 252.169H414.676L411.733 243.289H409.826L413.784 253.963L413.568 254.568C413.138 255.778 412.512 256.065 411.384 256.065C411.169 256.065 410.964 256.035 410.81 256.004V257.46C411.036 257.501 411.415 257.542 411.764 257.542ZM425.192 254.158C428.134 254.158 430.124 252.025 430.124 248.621V248.601C430.124 245.196 428.124 243.084 425.181 243.084C422.238 243.084 420.249 245.207 420.249 248.601V248.621C420.249 252.015 422.228 254.158 425.192 254.158ZM425.202 252.579C423.315 252.579 422.074 251.133 422.074 248.621V248.601C422.074 246.109 423.325 244.663 425.181 244.663C427.068 244.663 428.298 246.099 428.298 248.601V248.621C428.298 251.123 427.078 252.579 425.202 252.579ZM435.799 254.158C437.42 254.158 438.506 253.43 439.081 252.436H439.122V253.953H440.906V243.289H439.122V249.564C439.122 251.379 438.025 252.579 436.343 252.579C434.702 252.579 433.892 251.625 433.892 249.893V243.289H432.108V250.21C432.108 252.641 433.462 254.158 435.799 254.158ZM444.562 254.097C445.218 254.097 445.731 253.584 445.731 252.928C445.731 252.271 445.218 251.759 444.562 251.759C443.905 251.759 443.393 252.271 443.393 252.928C443.393 253.584 443.905 254.097 444.562 254.097Z" fill="#1D1D1F"/>
<path d="M230.761 303.953H239.743V302.292H232.606V289.157H230.761V303.953ZM245.809 304.158C248.136 304.158 249.879 302.764 250.228 301L250.249 300.897H248.495L248.464 300.99C248.157 301.902 247.203 302.579 245.85 302.579C243.953 302.579 242.743 301.297 242.702 299.103H250.382V298.447C250.382 295.248 248.608 293.084 245.696 293.084C242.784 293.084 240.897 295.35 240.897 298.652V298.662C240.897 302.015 242.743 304.158 245.809 304.158ZM245.686 294.663C247.244 294.663 248.393 295.637 248.567 297.708H242.732C242.927 295.719 244.137 294.663 245.686 294.663ZM255.535 304.158C256.96 304.158 258.242 303.389 258.867 302.22H258.908V303.953H260.692V296.581C260.692 294.448 259.113 293.084 256.591 293.084C254.079 293.084 252.551 294.499 252.397 296.252L252.387 296.365H254.109L254.13 296.273C254.335 295.319 255.196 294.663 256.57 294.663C258.057 294.663 258.908 295.453 258.908 296.755V297.647L255.853 297.821C253.402 297.965 251.987 299.103 251.987 300.918V300.938C251.987 302.876 253.412 304.158 255.535 304.158ZM253.812 300.938V300.918C253.812 299.923 254.632 299.288 256.058 299.206L258.908 299.031V299.903C258.908 301.451 257.616 302.61 255.935 302.61C254.653 302.61 253.812 301.964 253.812 300.938ZM263.19 303.953H264.974V297.37C264.974 295.75 265.876 294.786 267.26 294.786C267.691 294.786 268.07 294.837 268.214 294.889V293.156C268.07 293.135 267.804 293.084 267.496 293.084C266.296 293.084 265.374 293.863 265.015 295.094H264.974V293.289H263.19V303.953ZM269.901 303.953H271.685V297.678C271.685 295.863 272.782 294.663 274.464 294.663C276.105 294.663 276.915 295.617 276.915 297.35V303.953H278.699V297.032C278.699 294.602 277.345 293.084 275.007 293.084C273.387 293.084 272.3 293.812 271.726 294.807H271.685V293.289H269.901V303.953ZM285.744 303.953H287.528V297.268C287.528 295.781 288.553 294.663 289.968 294.663C291.291 294.663 292.153 295.514 292.153 296.806V303.953H293.937V297.175C293.937 295.719 294.931 294.663 296.346 294.663C297.751 294.663 298.561 295.535 298.561 297.001V303.953H300.345V296.591C300.345 294.468 298.982 293.084 296.869 293.084C295.372 293.084 294.121 293.853 293.527 295.135H293.486C293.024 293.833 291.947 293.084 290.491 293.084C289.117 293.084 288.051 293.792 287.569 294.848H287.528V293.289H285.744V303.953ZM307.272 304.158C310.215 304.158 312.204 302.025 312.204 298.621V298.601C312.204 295.196 310.205 293.084 307.262 293.084C304.319 293.084 302.33 295.207 302.33 298.601V298.621C302.33 302.015 304.309 304.158 307.272 304.158ZM307.282 302.579C305.396 302.579 304.155 301.133 304.155 298.621V298.601C304.155 296.109 305.406 294.663 307.262 294.663C309.149 294.663 310.379 296.099 310.379 298.601V298.621C310.379 301.123 309.159 302.579 307.282 302.579ZM314.24 303.953H316.024V297.37C316.024 295.75 316.927 294.786 318.311 294.786C318.742 294.786 319.121 294.837 319.264 294.889V293.156C319.121 293.135 318.854 293.084 318.547 293.084C317.347 293.084 316.424 293.863 316.065 295.094H316.024V293.289H314.24V303.953ZM324.827 304.158C327.155 304.158 328.898 302.764 329.247 301L329.267 300.897H327.514L327.483 300.99C327.176 301.902 326.222 302.579 324.868 302.579C322.972 302.579 321.762 301.297 321.721 299.103H329.401V298.447C329.401 295.248 327.627 293.084 324.715 293.084C321.803 293.084 319.916 295.35 319.916 298.652V298.662C319.916 302.015 321.762 304.158 324.827 304.158ZM324.704 294.663C326.263 294.663 327.411 295.637 327.586 297.708H321.751C321.946 295.719 323.156 294.663 324.704 294.663Z" fill="#0066CC"/>
</svg>
