<svg width="575" height="175" viewBox="0 0 575 175" fill="none" xmlns="http://www.w3.org/2000/svg">
<path d="M169.773 35.9531H176.851V2.13281H169.773V35.9531ZM181.746 35.9531H188.59V21.5156C188.59 18.2344 190.535 15.9844 193.606 15.9844C196.676 15.9844 198.223 17.8594 198.223 21.1406V35.9531H205.067V19.7344C205.067 13.8516 201.926 10.3125 196.395 10.3125C192.598 10.3125 190.02 12.0703 188.731 14.9531H188.59V10.8281H181.746V35.9531ZM219.243 36.4688C220.673 36.4688 221.774 36.3281 222.548 36.2109V31.1953C222.126 31.2422 221.68 31.3125 221.071 31.3125C219.008 31.3125 217.954 30.5156 217.954 28.1719V15.9844H222.548V10.8281H217.954V4.6875H211.04V10.8281H207.548V15.9844H211.04V28.9219C211.04 34.3125 213.665 36.4688 219.243 36.4688ZM226.177 35.9531H233.021V21.8906C233.021 18.2344 234.989 16.2188 238.364 16.2188C239.349 16.2188 240.286 16.3594 240.849 16.5938V10.5703C240.333 10.4297 239.63 10.3125 238.88 10.3125C235.95 10.3125 233.911 12.1172 233.161 15.2109H233.021V10.8281H226.177V35.9531ZM254.205 36.4688C261.799 36.4688 266.65 31.5938 266.65 23.3906V23.3438C266.65 15.2109 261.705 10.3125 254.181 10.3125C246.681 10.3125 241.76 15.2578 241.76 23.3438V23.3906C241.76 31.5703 246.564 36.4688 254.205 36.4688ZM254.228 31.1016C250.853 31.1016 248.72 28.3125 248.72 23.3906V23.3438C248.72 18.4922 250.877 15.6797 254.181 15.6797C257.51 15.6797 259.689 18.4922 259.689 23.3438V23.3906C259.689 28.2891 257.556 31.1016 254.228 31.1016ZM279.35 36.4688C282.983 36.4688 285.748 34.6406 287.084 31.6641H287.225V35.9531H294.069V2.13281H287.225V15.1875H287.084C285.725 12.1406 282.912 10.3125 279.35 10.3125C273.022 10.3125 269.131 15.1875 269.131 23.3672V23.3906C269.131 31.5469 273.022 36.4688 279.35 36.4688ZM281.647 30.7969C278.225 30.7969 276.092 27.9609 276.092 23.3906V23.3672C276.092 18.7734 278.248 15.9844 281.647 15.9844C284.951 15.9844 287.248 18.8438 287.248 23.3672V23.3906C287.248 27.9375 284.975 30.7969 281.647 30.7969ZM307.05 36.4688C310.847 36.4688 313.425 34.6875 314.714 31.8047H314.854V35.9531H321.698V10.8281H314.854V25.2656C314.854 28.5469 312.909 30.7969 309.839 30.7969C306.768 30.7969 305.222 28.8984 305.222 25.6172V10.8281H298.378V27.0469C298.378 32.9297 301.518 36.4688 307.05 36.4688ZM337.492 36.4688C344.195 36.4688 348.531 32.2969 348.859 26.8125V26.6719H342.484L342.46 26.8828C341.992 29.4141 340.281 31.1016 337.538 31.1016C334.163 31.1016 332.054 28.3125 332.054 23.3906V23.3672C332.054 18.5625 334.163 15.6797 337.515 15.6797C340.351 15.6797 342.015 17.5078 342.437 19.8984L342.484 20.1094H348.835V19.9453C348.578 14.5078 344.242 10.3125 337.421 10.3125C329.898 10.3125 325.093 15.3047 325.093 23.3438V23.3672C325.093 31.4766 329.828 36.4688 337.492 36.4688ZM355.582 7.59375C357.645 7.59375 359.238 5.97656 359.238 4.03125C359.238 2.08594 357.645 0.46875 355.582 0.46875C353.52 0.46875 351.926 2.08594 351.926 4.03125C351.926 5.97656 353.52 7.59375 355.582 7.59375ZM352.16 35.9531H359.004V10.8281H352.16V35.9531ZM363.454 35.9531H370.297V21.5156C370.297 18.2344 372.243 15.9844 375.313 15.9844C378.383 15.9844 379.93 17.8594 379.93 21.1406V35.9531H386.774V19.7344C386.774 13.8516 383.633 10.3125 378.102 10.3125C374.305 10.3125 371.727 12.0703 370.438 14.9531H370.297V10.8281H363.454V35.9531ZM402.708 44.6719C410.255 44.6719 414.966 40.8516 414.966 35.25V10.8281H408.122V15.1172H407.981C406.622 12.1875 403.88 10.3125 400.341 10.3125C393.989 10.3125 390.052 15.0703 390.052 23.0859V23.1094C390.052 30.9141 393.942 35.6016 400.224 35.6016C403.856 35.6016 406.669 33.9375 407.981 31.3125H408.122V35.1562C408.122 37.9688 406.247 39.7969 402.708 39.7969C399.849 39.7969 398.021 38.7188 397.481 37.4766L397.411 37.3125H390.755L390.778 37.5234C391.435 41.5547 395.794 44.6719 402.708 44.6719ZM402.591 30.5859C399.169 30.5859 397.013 27.7969 397.013 23.2734V23.25C397.013 18.75 399.192 15.9844 402.591 15.9844C405.919 15.9844 408.146 18.7734 408.146 23.25V23.2734C408.146 27.7734 405.942 30.5859 402.591 30.5859ZM199.957 88.4688C201.387 88.4688 202.488 88.3281 203.262 88.2109V83.1953C202.84 83.2422 202.395 83.3125 201.785 83.3125C199.723 83.3125 198.668 82.5156 198.668 80.1719V67.9844H203.262V62.8281H198.668V56.6875H191.754V62.8281H188.262V67.9844H191.754V80.9219C191.754 86.3125 194.379 88.4688 199.957 88.4688ZM207.055 87.9531H213.899V73.5625C213.899 70.2812 215.844 67.9844 218.868 67.9844C221.985 67.9844 223.719 70.0703 223.719 73.5859V87.9531H230.563V72.1797C230.563 66.1094 227.188 62.3125 221.751 62.3125C217.977 62.3125 215.329 64.0469 214.04 67.1641H213.899V54.1328H207.055V87.9531ZM246.263 88.4688C253.435 88.4688 256.904 84.2266 257.677 80.5234L257.747 80.2656H251.466L251.419 80.4062C250.927 81.8125 249.216 83.3594 246.404 83.3594C242.911 83.3594 240.732 81.0156 240.661 77.0078H257.958V74.8984C257.958 67.3047 253.341 62.3125 245.982 62.3125C238.622 62.3125 233.911 67.4219 233.911 75.4141V75.4375C233.911 83.4766 238.575 88.4688 246.263 88.4688ZM246.099 67.4219C248.935 67.4219 250.974 69.2266 251.396 72.6953H240.732C241.177 69.2969 243.286 67.4219 246.099 67.4219ZM269.155 87.9531H276.584L279.139 79.75H291.092L293.647 87.9531H301.076L289.287 54.1328H280.967L269.155 87.9531ZM285.045 60.6953H285.186L289.451 74.4531H280.78L285.045 60.6953ZM303.815 96.1562H310.659V83.6641H310.8C312.159 86.6406 314.995 88.4688 318.581 88.4688C324.862 88.4688 328.753 83.5469 328.753 75.3906V75.3672C328.753 67.1875 324.862 62.3125 318.487 62.3125C314.925 62.3125 312.182 64.1641 310.823 67.2109H310.659V62.8281H303.815V96.1562ZM316.237 82.7969C312.909 82.7969 310.636 79.9375 310.636 75.4141V75.3906C310.636 70.8438 312.909 67.9844 316.237 67.9844C319.636 67.9844 321.792 70.7734 321.792 75.3672V75.3906C321.792 79.9609 319.636 82.7969 316.237 82.7969ZM332.171 96.1562H339.015V83.6641H339.156C340.515 86.6406 343.351 88.4688 346.937 88.4688C353.218 88.4688 357.109 83.5469 357.109 75.3906V75.3672C357.109 67.1875 353.218 62.3125 346.843 62.3125C343.281 62.3125 340.538 64.1641 339.179 67.2109H339.015V62.8281H332.171V96.1562ZM344.593 82.7969C341.265 82.7969 338.992 79.9375 338.992 75.4141V75.3906C338.992 70.8438 341.265 67.9844 344.593 67.9844C347.992 67.9844 350.148 70.7734 350.148 75.3672V75.3906C350.148 79.9609 347.992 82.7969 344.593 82.7969ZM360.691 87.9531H367.535V54.1328H360.691V87.9531ZM383.446 88.4688C390.618 88.4688 394.086 84.2266 394.86 80.5234L394.93 80.2656H388.649L388.602 80.4062C388.11 81.8125 386.399 83.3594 383.586 83.3594C380.094 83.3594 377.915 81.0156 377.844 77.0078H395.141V74.8984C395.141 67.3047 390.524 62.3125 383.165 62.3125C375.805 62.3125 371.094 67.4219 371.094 75.4141V75.4375C371.094 83.4766 375.758 88.4688 383.446 88.4688ZM383.282 67.4219C386.118 67.4219 388.157 69.2266 388.579 72.6953H377.915C378.36 69.2969 380.469 67.4219 383.282 67.4219Z" fill="#1D1D1F"/>
<path d="M141.358 165.953H148.436V153.695H154.108L160.413 165.953H168.428L161.303 152.641C165.053 151.164 167.421 147.461 167.421 143.008V142.961C167.421 136.164 162.921 132.133 155.327 132.133H141.358V165.953ZM148.436 148.328V137.664H154.46C157.952 137.664 160.178 139.727 160.178 142.961V143.008C160.178 146.336 158.069 148.328 154.553 148.328H148.436ZM182.581 166.469C189.753 166.469 193.222 162.227 193.995 158.523L194.066 158.266H187.784L187.737 158.406C187.245 159.812 185.534 161.359 182.722 161.359C179.23 161.359 177.05 159.016 176.98 155.008H194.277V152.898C194.277 145.305 189.659 140.312 182.3 140.312C174.941 140.312 170.23 145.422 170.23 153.414V153.438C170.23 161.477 174.894 166.469 182.581 166.469ZM182.417 145.422C185.253 145.422 187.292 147.227 187.714 150.695H177.05C177.495 147.297 179.605 145.422 182.417 145.422ZM208.008 166.469C214.476 166.469 219 163.234 219 158.312V158.289C219 154.586 216.843 152.523 211.593 151.422L207.328 150.508C204.797 149.969 203.929 149.125 203.929 147.836V147.812C203.929 146.195 205.406 145.141 207.773 145.141C210.304 145.141 211.781 146.5 212.015 148.305L212.039 148.492H218.343V148.258C218.179 143.852 214.453 140.312 207.773 140.312C201.375 140.312 197.25 143.406 197.25 148.188V148.211C197.25 151.961 199.711 154.398 204.586 155.43L208.851 156.32C211.312 156.859 212.156 157.633 212.156 158.969V158.992C212.156 160.609 210.586 161.617 208.008 161.617C205.265 161.617 203.789 160.469 203.343 158.5L203.297 158.289H196.617L196.64 158.5C197.179 163.258 201.047 166.469 208.008 166.469ZM233.668 166.469C240.84 166.469 244.309 162.227 245.082 158.523L245.153 158.266H238.871L238.824 158.406C238.332 159.812 236.621 161.359 233.809 161.359C230.317 161.359 228.137 159.016 228.067 155.008H245.364V152.898C245.364 145.305 240.746 140.312 233.387 140.312C226.028 140.312 221.317 145.422 221.317 153.414V153.438C221.317 161.477 225.981 166.469 233.668 166.469ZM233.504 145.422C236.34 145.422 238.379 147.227 238.801 150.695H228.137C228.582 147.297 230.692 145.422 233.504 145.422ZM256.235 166.352C259.54 166.352 262.212 164.781 263.641 162.203H263.782V165.953H270.626V148.727C270.626 143.664 266.43 140.312 259.938 140.312C253.305 140.312 249.321 143.641 248.946 148.281L248.923 148.562H255.18L255.227 148.352C255.555 146.734 257.102 145.539 259.657 145.539C262.329 145.539 263.782 146.922 263.782 149.148V150.695L257.571 151.07C251.337 151.469 247.798 154.141 247.798 158.711V158.758C247.798 163.188 251.196 166.352 256.235 166.352ZM254.571 158.406V158.359C254.571 156.578 255.954 155.453 258.602 155.289L263.782 154.961V156.766C263.782 159.391 261.532 161.359 258.462 161.359C256.095 161.359 254.571 160.258 254.571 158.406ZM274.911 165.953H281.755V151.891C281.755 148.234 283.724 146.219 287.099 146.219C288.083 146.219 289.021 146.359 289.583 146.594V140.57C289.068 140.43 288.365 140.312 287.615 140.312C284.685 140.312 282.646 142.117 281.896 145.211H281.755V140.828H274.911V165.953ZM302.892 166.469C309.596 166.469 313.932 162.297 314.26 156.812V156.672H307.885L307.861 156.883C307.392 159.414 305.682 161.102 302.939 161.102C299.564 161.102 297.455 158.312 297.455 153.391V153.367C297.455 148.562 299.564 145.68 302.916 145.68C305.752 145.68 307.416 147.508 307.838 149.898L307.885 150.109H314.236V149.945C313.978 144.508 309.642 140.312 302.822 140.312C295.299 140.312 290.494 145.305 290.494 153.344V153.367C290.494 161.477 295.228 166.469 302.892 166.469ZM317.584 165.953H324.428V151.562C324.428 148.281 326.373 145.984 329.397 145.984C332.514 145.984 334.248 148.07 334.248 151.586V165.953H341.092V150.18C341.092 144.109 337.717 140.312 332.28 140.312C328.506 140.312 325.858 142.047 324.569 145.164H324.428V132.133H317.584V165.953ZM362.203 166.352C365.507 166.352 368.179 164.781 369.609 162.203H369.75V165.953H376.593V148.727C376.593 143.664 372.398 140.312 365.906 140.312C359.273 140.312 355.289 143.641 354.914 148.281L354.89 148.562H361.148L361.195 148.352C361.523 146.734 363.07 145.539 365.625 145.539C368.296 145.539 369.75 146.922 369.75 149.148V150.695L363.539 151.07C357.304 151.469 353.765 154.141 353.765 158.711V158.758C353.765 163.188 357.164 166.352 362.203 166.352ZM360.539 158.406V158.359C360.539 156.578 361.921 155.453 364.57 155.289L369.75 154.961V156.766C369.75 159.391 367.5 161.359 364.429 161.359C362.062 161.359 360.539 160.258 360.539 158.406ZM380.879 174.156H387.723V161.664H387.863C389.223 164.641 392.059 166.469 395.645 166.469C401.926 166.469 405.816 161.547 405.816 153.391V153.367C405.816 145.188 401.926 140.312 395.551 140.312C391.988 140.312 389.246 142.164 387.887 145.211H387.723V140.828H380.879V174.156ZM393.301 160.797C389.973 160.797 387.699 157.938 387.699 153.414V153.391C387.699 148.844 389.973 145.984 393.301 145.984C396.699 145.984 398.856 148.773 398.856 153.367V153.391C398.856 157.961 396.699 160.797 393.301 160.797ZM409.235 174.156H416.079V161.664H416.219C417.579 164.641 420.415 166.469 424.001 166.469C430.282 166.469 434.172 161.547 434.172 153.391V153.367C434.172 145.188 430.282 140.312 423.907 140.312C420.344 140.312 417.602 142.164 416.243 145.211H416.079V140.828H409.235V174.156ZM421.657 160.797C418.329 160.797 416.055 157.938 416.055 153.414V153.391C416.055 148.844 418.329 145.984 421.657 145.984C425.055 145.984 427.212 148.773 427.212 153.367V153.391C427.212 157.961 425.055 160.797 421.657 160.797ZM440.45 166.352C442.56 166.352 444.247 164.664 444.247 162.555C444.247 160.422 442.56 158.758 440.45 158.758C438.318 158.758 436.654 160.422 436.654 162.555C436.654 164.664 438.318 166.352 440.45 166.352Z" fill="#1D1D1F"/>
</svg>
