<svg width="16" height="88" viewBox="0 0 16 88" fill="none" xmlns="http://www.w3.org/2000/svg">
<g clip-path="url(#clip0_2_3434)">
<path d="M14.1989 27.3428L10.6989 23.8428C11.5806 22.763 12.0138 21.3857 11.9088 19.9956C11.8039 18.6055 11.1689 17.3088 10.1351 16.3736C9.10132 15.4383 7.74772 14.936 6.35408 14.9704C4.96044 15.0048 3.63328 15.5733 2.64689 16.5584C1.6605 17.5436 1.09028 18.87 1.05408 20.2636C1.01788 21.6572 1.51847 23.0114 2.45238 24.0464C3.38629 25.0814 4.68214 25.7181 6.07212 25.8248C7.4621 25.9315 8.83995 25.5001 9.92091 24.6198L13.4209 28.1198C13.472 28.1709 13.5326 28.2114 13.5994 28.2391C13.6661 28.2667 13.7377 28.281 13.8099 28.281C13.8822 28.281 13.9537 28.2667 14.0204 28.2391C14.0872 28.2114 14.1478 28.1709 14.1989 28.1198C14.25 28.0687 14.2905 28.0081 14.3182 27.9414C14.3458 27.8746 14.36 27.8031 14.36 27.7308C14.36 27.6586 14.3458 27.5871 14.3182 27.5203C14.2905 27.4536 14.25 27.3929 14.1989 27.3418V27.3428ZM2.17791 20.4178C2.17811 19.5637 2.43158 18.7287 2.90628 18.0186C3.38098 17.3085 4.05558 16.7551 4.84479 16.4283C5.63401 16.1016 6.50238 16.0162 7.34012 16.1829C8.17786 16.3497 8.94734 16.7611 9.55126 17.3652C10.1552 17.9693 10.5664 18.7388 10.733 19.5766C10.8996 20.4144 10.814 21.2827 10.4871 22.0719C10.1601 22.861 9.60655 23.5355 8.89632 24.01C8.18608 24.4846 7.35109 24.7378 6.49691 24.7378C5.35159 24.7368 4.2535 24.2813 3.44373 23.4713C2.63397 22.6613 2.17871 21.5632 2.17791 20.4178Z" fill="white"/>
<path d="M14.1989 71.5928L10.6989 68.0928C11.5806 67.013 12.0138 65.6357 11.9088 64.2456C11.8039 62.8555 11.1689 61.5588 10.1351 60.6236C9.10132 59.6883 7.74772 59.186 6.35408 59.2204C4.96044 59.2548 3.63328 59.8233 2.64689 60.8084C1.6605 61.7936 1.09028 63.12 1.05408 64.5136C1.01788 65.9072 1.51847 67.2614 2.45238 68.2964C3.38629 69.3314 4.68214 69.9681 6.07212 70.0748C7.4621 70.1815 8.83995 69.7501 9.92091 68.8698L13.4209 72.3698C13.5241 72.473 13.664 72.531 13.8099 72.531C13.9558 72.531 14.0957 72.473 14.1989 72.3698C14.3021 72.2667 14.36 72.1267 14.36 71.9808C14.36 71.8349 14.3021 71.695 14.1989 71.5918V71.5928ZM2.17791 64.6678C2.17811 63.8137 2.43158 62.9787 2.90628 62.2686C3.38098 61.5585 4.05558 61.0051 4.84479 60.6783C5.63401 60.3516 6.50238 60.2662 7.34012 60.4329C8.17786 60.5997 8.94734 61.0111 9.55126 61.6152C10.1552 62.2193 10.5664 62.9888 10.733 63.8266C10.8996 64.6644 10.814 65.5327 10.4871 66.3219C10.1601 67.111 9.60655 67.7855 8.89632 68.26C8.18608 68.7346 7.35109 68.9878 6.49691 68.9878C5.35159 68.9868 4.2535 68.5313 3.44373 67.7213C2.63397 66.9114 2.17871 65.8132 2.17791 64.6678Z" fill="#86868B"/>
</g>
<defs>
<clipPath id="clip0_2_3434">
<rect width="15" height="88" fill="white" transform="translate(0.21875)"/>
</clipPath>
</defs>
</svg>
