<svg width="135" height="37" viewBox="0 0 135 37" fill="none" xmlns="http://www.w3.org/2000/svg">
<rect x="0.714111" y="0.53125" width="134.172" height="36" rx="18" fill="white" fill-opacity="0.01"/>
<path d="M24.9761 23.7842C27.437 23.7842 28.9546 22.5469 28.9546 20.5918V20.585C28.9546 19.0469 28.0454 18.2129 25.9605 17.7822L24.9146 17.5703C23.7525 17.3311 23.2739 16.9482 23.2739 16.3057V16.2988C23.2739 15.5605 23.9507 15.0957 24.9693 15.0889C26.0083 15.0889 26.6919 15.5811 26.8081 16.2852L26.8218 16.3672H28.7632L28.7564 16.2783C28.6265 14.6309 27.273 13.4141 24.9693 13.4141C22.7818 13.4141 21.2095 14.624 21.2095 16.4561V16.4629C21.2095 17.96 22.0913 18.917 24.1421 19.334L25.1812 19.5459C26.4048 19.7988 26.8902 20.1611 26.8902 20.8105V20.8174C26.8902 21.5762 26.1314 22.1025 25.0308 22.1025C23.8755 22.1025 23.0757 21.6035 23.0005 20.8652L22.9937 20.7969H21.0044L21.0112 20.9062C21.1275 22.6562 22.6177 23.7842 24.9761 23.7842ZM33.6115 23.5586C33.9943 23.5586 34.3634 23.5176 34.6095 23.4697V21.9863C34.4181 22.0068 34.2814 22.0205 34.0216 22.0205C33.3449 22.0205 33.0578 21.7197 33.0578 21.043V17.5088H34.6095V16.0049H33.0578V14.207H31.0412V16.0049H29.879V17.5088H31.0412V21.501C31.0412 22.9639 31.7794 23.5586 33.6115 23.5586ZM36.0466 23.5312H38.0427V19.3203C38.0427 18.2539 38.7605 17.6045 39.8953 17.6045C40.2029 17.6045 40.5105 17.6523 40.8113 17.7207V15.9775C40.6131 15.9229 40.3328 15.8818 40.0662 15.8818C39.0886 15.8818 38.405 16.3604 38.1658 17.1738H38.0427V16.0049H36.0466V23.5312ZM45.0512 23.6885C47.2523 23.6885 48.223 22.417 48.4555 21.4736L48.4691 21.4053H46.6098L46.5892 21.4463C46.4525 21.7334 45.9672 22.1982 45.0922 22.1982C44.0326 22.1982 43.3695 21.4805 43.349 20.2432H48.5307V19.6211C48.5307 17.3447 47.1635 15.8408 44.9691 15.8408C42.7748 15.8408 41.3734 17.3789 41.3734 19.7715V19.7783C41.3734 22.1914 42.7611 23.6885 45.0512 23.6885ZM45.0033 17.3379C45.8715 17.3379 46.4935 17.8984 46.6166 18.9922H43.3695C43.4926 17.9258 44.1351 17.3379 45.0033 17.3379ZM51.9912 23.6475C52.9756 23.6475 53.7686 23.2305 54.1514 22.5332H54.2744V23.5312H56.2432V18.3906C56.2432 16.7842 55.1152 15.8408 53.1192 15.8408C51.2256 15.8408 49.9815 16.7158 49.8242 18.0352L49.8174 18.0967H51.6631L51.6768 18.0693C51.834 17.625 52.292 17.3721 53.0098 17.3721C53.8301 17.3721 54.2744 17.7412 54.2744 18.3906V19.0127L52.4561 19.1221C50.583 19.2314 49.5371 20.0244 49.5371 21.3779V21.3916C49.5371 22.7588 50.5557 23.6475 51.9912 23.6475ZM51.4854 21.2686V21.2549C51.4854 20.708 51.9024 20.3867 52.7569 20.332L54.2744 20.2363V20.79C54.2744 21.583 53.584 22.1914 52.6611 22.1914C51.9707 22.1914 51.4854 21.8428 51.4854 21.2686ZM57.9743 23.5312H59.9704V18.9922C59.9704 18.1309 60.5172 17.4951 61.2965 17.4951C62.0758 17.4951 62.5338 17.9668 62.5338 18.7734V23.5312H64.5299V18.9033C64.5299 18.0898 65.0495 17.4951 65.8561 17.4951C66.6901 17.4951 67.1002 17.9531 67.1002 18.8623V23.5312H69.0963V18.3633C69.0963 16.8115 68.1598 15.8408 66.6627 15.8408C65.61 15.8408 64.735 16.3945 64.3932 17.2285H64.2702C63.9625 16.3604 63.2038 15.8408 62.1784 15.8408C61.194 15.8408 60.4147 16.333 60.0934 17.1807H59.9704V16.0049H57.9743V23.5312ZM74.1923 23.5312H76.1884V19.1768C76.1884 18.1582 76.7489 17.4951 77.6718 17.4951C78.6151 17.4951 79.0526 18.0557 79.0526 19.1152V23.5312H81.0487V18.6641C81.0487 16.8662 80.1464 15.8408 78.4716 15.8408C77.3983 15.8408 76.6532 16.3535 76.3114 17.167H76.1884V16.0049H74.1923V23.5312ZM86.1021 23.6885C88.4194 23.6885 89.814 22.2256 89.814 19.7715V19.7578C89.814 17.3242 88.3989 15.8408 86.1021 15.8408C83.8052 15.8408 82.3902 17.3311 82.3902 19.7578V19.7715C82.3902 22.2188 83.7847 23.6885 86.1021 23.6885ZM86.1021 22.123C85.0357 22.123 84.4341 21.2549 84.4341 19.7715V19.7578C84.4341 18.2881 85.0425 17.4062 86.1021 17.4062C87.1548 17.4062 87.77 18.2881 87.77 19.7578V19.7715C87.77 21.2549 87.1616 22.123 86.1021 22.123ZM92.3312 23.5312H94.423L95.756 18.2812H95.879L97.2257 23.5312H99.3449L101.348 16.0049H99.3722L98.2511 21.4531H98.1281L96.8019 16.0049H94.9015L93.5822 21.4531H93.4591L92.338 16.0049H90.3214L92.3312 23.5312Z" fill="#1D1D1F" fill-opacity="0.01"/>
</svg>
